<svg xmlns="http://www.w3.org/2000/svg" width="32" height="32" viewBox="0 0 32 32" fill="none">
  <circle cx="16" cy="16" r="15" fill="#0c4a6e" opacity="0.2"/>
  <circle cx="16" cy="16" r="15" stroke="#7dd3fc" stroke-width="1" opacity="0.5"/>
  <g transform="translate(16,16)">
    <path d="M-6-9L-9-14L-4-11Z" fill="#f8fafc" stroke="#94a3b8" stroke-width="0.5"/>
    <path d="M6-9L9-14L4-11Z" fill="#f8fafc" stroke="#94a3b8" stroke-width="0.5"/>
    <path d="M-7.5-8.5C-7.5-8.5-9-4-7.5 0C-6 3-3.5 6-2 7.5L-1 8.5C0 9 0 9 1 8.5L2 7.5C3.5 6 6 3 7.5 0C9-4 7.5-8.5 7.5-8.5C7.5-11-7.5-11-7.5-8.5Z" fill="#f8fafc" stroke="#94a3b8" stroke-width="0.5"/>
    <ellipse cx="-3" cy="-2.5" rx="1.5" ry="1.8" fill="#0c4a6e"/>
    <ellipse cx="3" cy="-2.5" rx="1.5" ry="1.8" fill="#0c4a6e"/>
    <ellipse cx="-3" cy="-2.5" rx="0.7" ry="1" fill="#7dd3fc"/>
    <ellipse cx="3" cy="-2.5" rx="0.7" ry="1" fill="#7dd3fc"/>
    <ellipse cx="0" cy="1.5" rx="1.2" ry="0.9" fill="#1e293b"/>
    <path d="M-2 2.5C-1.5 3.5-1 4-2 4" stroke="#475569" stroke-width="0.4" stroke-linecap="round" fill="none"/>
    <path d="M2 2.5C1.5 3.5 1 4 2 4" stroke="#475569" stroke-width="0.4" stroke-linecap="round" fill="none"/>
    <path d="M-4-8.5C-2-9 0-9 2-8.5C4-9 6-8.5 6-8.5" stroke="white" stroke-width="1" stroke-linecap="round" fill="none" opacity="0.8"/>
    <circle cx="1" cy="-9.5" r="0.6" fill="white" opacity="0.6"/>
    <circle cx="-1.5" cy="-9" r="0.5" fill="white" opacity="0.5"/>
  </g>
  <line x1="4" y1="5" x2="6" y2="7" stroke="#7dd3fc" stroke-width="0.6" stroke-linecap="round" opacity="0.5"/>
  <line x1="6" y1="5" x2="4" y2="7" stroke="#7dd3fc" stroke-width="0.6" stroke-linecap="round" opacity="0.5"/>
  <line x1="26" y1="5" x2="28" y2="7" stroke="#7dd3fc" stroke-width="0.6" stroke-linecap="round" opacity="0.5"/>
  <line x1="28" y1="5" x2="26" y2="7" stroke="#7dd3fc" stroke-width="0.6" stroke-linecap="round" opacity="0.5"/>
</svg>
