<svg xmlns="http://www.w3.org/2000/svg" viewBox="0 0 512 512">
  <defs>
    <linearGradient id="bg" x1="0" y1="0" x2="1" y2="1">
      <stop offset="0%" stop-color="#0891b2"/>
      <stop offset="100%" stop-color="#0e7490"/>
    </linearGradient>
  </defs>
  <rect width="512" height="512" rx="96" fill="url(#bg)"/>
  <g transform="translate(256,256)" fill="none" stroke="#fff" stroke-width="18" stroke-linecap="round" stroke-linejoin="round">
    <line x1="0" y1="-130" x2="0" y2="130"/>
    <line x1="-112" y1="-65" x2="112" y2="65"/>
    <line x1="-112" y1="65" x2="112" y2="-65"/>
    <line x1="0" y1="-130" x2="-30" y2="-100"/>
    <line x1="0" y1="-130" x2="30" y2="-100"/>
    <line x1="0" y1="130" x2="-30" y2="100"/>
    <line x1="0" y1="130" x2="30" y2="100"/>
    <line x1="-112" y1="-65" x2="-82" y2="-35"/>
    <line x1="-112" y1="-65" x2="-82" y2="-95"/>
    <line x1="112" y1="65" x2="82" y2="35"/>
    <line x1="112" y1="65" x2="82" y2="95"/>
    <line x1="-112" y1="65" x2="-82" y2="35"/>
    <line x1="-112" y1="65" x2="-82" y2="95"/>
    <line x1="112" y1="-65" x2="82" y2="-35"/>
    <line x1="112" y1="-65" x2="82" y2="-95"/>
  </g>
</svg>
